<svg xmlns="http://www.w3.org/2000/svg" viewBox="0 0 128 128"><title>HJ 곰과 SY 토끼</title><g stroke="#765198" stroke-width="3" stroke-linejoin="round"><ellipse cx="83" cy="27" rx="9" ry="23" fill="#ffd0cc" transform="rotate(-8 83 27)"/><ellipse cx="107" cy="29" rx="9" ry="23" fill="#ffd0cc" transform="rotate(16 107 29)"/><path d="M65 62q0-24 27-24t28 24v15q0 25-28 25T65 77Z" fill="#ffd0cc"/><circle cx="20" cy="49" r="13" fill="#c6a7ef"/><circle cx="60" cy="48" r="13" fill="#c6a7ef"/><path d="M8 71q0-27 32-27t32 27v12q0 28-32 28T8 83Z" fill="#c6a7ef"/></g><ellipse cx="40" cy="85" rx="16" ry="13" fill="#fff3de"/><ellipse cx="94" cy="77" rx="13" ry="11" fill="#fff3de"/><g fill="#704580"><circle cx="27" cy="73" r="3"/><circle cx="53" cy="73" r="3"/><ellipse cx="40" cy="81" rx="5" ry="3"/><circle cx="84" cy="67" r="3"/><circle cx="104" cy="67" r="3"/></g><path d="M33 86q7 10 14 0m40-7q7 9 14 0" fill="none" stroke="#704580" stroke-width="2.5" stroke-linecap="round"/><ellipse cx="94" cy="73" rx="4" ry="3" fill="#e98fa1"/><g fill="#f9a9bb"><ellipse cx="17" cy="84" rx="5" ry="3"/><ellipse cx="62" cy="84" rx="5" ry="3"/><ellipse cx="76" cy="77" rx="4" ry="3"/><ellipse cx="112" cy="77" rx="4" ry="3"/></g><path d="m37 106-10-4v12l10-4m7-4 10-4v12l-10-4" fill="#9ce3ce" stroke="#6baa94" stroke-width="2"/><path d="m107 39-9-8-2 14 10-3m3-3 10-7 1 13-10-3" fill="#b397df" stroke="#765198" stroke-width="2"/></svg>
